<svg id="Grupo_211" data-name="Grupo 211" xmlns="http://www.w3.org/2000/svg" xmlns:xlink="http://www.w3.org/1999/xlink" width="39.932" height="39.932" viewBox="0 0 39.932 39.932">
  <defs>
    <clipPath id="clip-path">
      <rect id="Retângulo_212" data-name="Retângulo 212" width="39.932" height="39.932" fill="#08647a"/>
    </clipPath>
  </defs>
  <g id="Grupo_210" data-name="Grupo 210" clip-path="url(#clip-path)">
    <path id="Caminho_779" data-name="Caminho 779" d="M62.3,128.482a4.5,4.5,0,0,1-3.161,1.131,4.762,4.762,0,0,1-3.745-1.528,7.181,7.181,0,0,1,.187-8.667,5.242,5.242,0,0,1,7.505.464,3.957,3.957,0,0,1,.764,2.06H61.546a3.117,3.117,0,0,0-.577-1.2,2.346,2.346,0,0,0-1.865-.719,2.312,2.312,0,0,0-1.985,1.015,4.879,4.879,0,0,0-.727,2.873,4.282,4.282,0,0,0,.768,2.783,2.426,2.426,0,0,0,1.951.925,2.232,2.232,0,0,0,1.85-.794,3.453,3.453,0,0,0,.584-1.281h2.285a4.965,4.965,0,0,1-1.528,2.936" transform="translate(-47.667 -104.146)" fill="#08647a"/>
    <path id="Caminho_780" data-name="Caminho 780" d="M155.233,128.659a4.813,4.813,0,0,1-3.618-1.288,5.955,5.955,0,0,1-1.678-4.554,5.839,5.839,0,0,1,1.678-4.554,5.724,5.724,0,0,1,7.236,0,5.854,5.854,0,0,1,1.67,4.554,5.971,5.971,0,0,1-1.67,4.554,4.814,4.814,0,0,1-3.618,1.288m2.18-2.966a5.544,5.544,0,0,0,0-5.749,2.632,2.632,0,0,0-2.176-1.015,2.666,2.666,0,0,0-2.187,1.011,5.475,5.475,0,0,0,0,5.753,2.863,2.863,0,0,0,4.367,0" transform="translate(-132.272 -103.192)" fill="#08647a"/>
    <path id="Caminho_781" data-name="Caminho 781" d="M243.485,184.221a.908.908,0,0,0-1.411.157,2.1,2.1,0,0,0-.14.777h-1.21a3.057,3.057,0,0,1,.293-1.306,1.822,1.822,0,0,1,1.769-.948,2.243,2.243,0,0,1,1.6.557,1.925,1.925,0,0,1,.594,1.474,2,2,0,0,1-.419,1.249,4.177,4.177,0,0,1-.9.808l-.5.354q-.467.332-.64.48a1.4,1.4,0,0,0-.29.345h2.764v1.1h-4.337a2.976,2.976,0,0,1,.293-1.245,3.519,3.519,0,0,1,1.258-1.341,9.229,9.229,0,0,0,1.113-.882,1.3,1.3,0,0,0,.389-.908,1.007,1.007,0,0,0-.223-.668" transform="translate(-212.302 -161.353)" fill="#08647a"/>
    <path id="Caminho_782" data-name="Caminho 782" d="M19.966,39.932A19.966,19.966,0,1,1,39.932,19.966,19.989,19.989,0,0,1,19.966,39.932m0-37.693A17.727,17.727,0,1,0,37.693,19.966,17.748,17.748,0,0,0,19.966,2.239" fill="#08647a"/>
    <rect id="Retângulo_210" data-name="Retângulo 210" width="8.893" height="2.238" transform="translate(24.607 10.704) rotate(-45)" fill="#08647a"/>
    <rect id="Retângulo_211" data-name="Retângulo 211" width="5.792" height="2.239" transform="translate(4.813 30.497) rotate(-45.002)" fill="#08647a"/>
  </g>
</svg>
